<svg width="36" height="40" viewBox="0 0 36 40" fill="none" xmlns="http://www.w3.org/2000/svg">
<path d="M12 14H8.40039C6.16018 14 5.03924 14 4.18359 14.436C3.43095 14.8195 2.81947 15.4309 2.43597 16.1836C2 17.0392 2 18.1602 2 20.4004V31.6004C2 33.8406 2 34.9601 2.43597 35.8158C2.81947 36.5684 3.43095 37.181 4.18359 37.5645C5.03841 38 6.15801 38 8.39388 38L27.6062 38C29.842 38 30.96 38 31.8148 37.5645C32.5674 37.181 33.181 36.5684 33.5645 35.8158C34 34.961 34 33.843 34 31.6072V20.3938C34 18.158 34 17.0384 33.5645 16.1836C33.181 15.4309 32.5674 14.8195 31.8148 14.436C30.9591 14 29.8406 14 27.6004 14H12ZM12 14V8.24023C12 4.79398 14.6 2 17.8074 2C19.4553 2 20.9416 2.73758 21.9986 3.92227" stroke="white" stroke-width="2" stroke-linecap="round" stroke-linejoin="round"/>
</svg>
