<svg width="34" height="34" viewBox="0 0 34 34" fill="none" xmlns="http://www.w3.org/2000/svg">
<path d="M12.0004 4H8.40039C6.16018 4 5.03924 4 4.18359 4.43597C3.43095 4.81947 2.81947 5.43095 2.43597 6.18359C2 7.03924 2 8.16018 2 10.4004V25.6004C2 27.8406 2 28.9601 2.43597 29.8158C2.81947 30.5684 3.43095 31.181 4.18359 31.5645C5.0384 32 6.15799 32 8.39382 32H23.6062C25.842 32 26.96 32 27.8148 31.5645C28.5674 31.181 29.181 30.5678 29.5645 29.8152C30 28.9604 30 27.842 30 25.6062V22M32 12V2M32 2H22M32 2L18 16" stroke="white" stroke-width="2" stroke-linecap="round" stroke-linejoin="round"/>
</svg>
