<svg width="36" height="36" viewBox="0 0 36 36" fill="none" xmlns="http://www.w3.org/2000/svg">
<path d="M18 24L24 18M24 18L18 12M24 18H2M2 8.49604V8.40039C2 6.16018 2 5.03924 2.43597 4.18359C2.81947 3.43095 3.43095 2.81947 4.18359 2.43597C5.03924 2 6.16018 2 8.40039 2H27.6004C29.8406 2 30.9591 2 31.8148 2.43597C32.5674 2.81947 33.181 3.43095 33.5645 4.18359C34 5.0384 34 6.15799 34 8.39382V27.6072C34 29.843 34 30.961 33.5645 31.8158C33.181 32.5684 32.5674 33.181 31.8148 33.5645C30.96 34 29.842 34 27.6062 34H8.39382C6.15799 34 5.0384 34 4.18359 33.5645C3.43095 33.181 2.81947 32.5678 2.43597 31.8152C2 30.9595 2 29.8402 2 27.6V27.5" stroke="white" stroke-width="2" stroke-linecap="round" stroke-linejoin="round"/>
</svg>
